{
    "asset" : {
        "generator" : "Khronos glTF Blender I/O v1.7.33",
        "version" : "2.0"
    },
    "scene" : 10,
    "scenes" : [
        {
            "name" : "class0"
        },
        {
            "name" : "class1"
        },
        {
            "name" : "class2"
        },
        {
            "name" : "class3"
        },
        {
            "name" : "classMain0"
        },
        {
            "name" : "classMain1"
        },
        {
            "name" : "classMain2"
        },
        {
            "name" : "classMain3"
        },
        {
            "name" : "enum0"
        },
        {
            "name" : "enum1"
        },
        {
            "name" : "interface0",
            "nodes" : [
                0,
                1,
                2,
                3,
                4
            ]
        },
        {
            "name" : "interface1"
        },
        {
            "name" : "interfacef2"
        },
        {
            "name" : "scene"
        }
    ],
    "nodes" : [
        {
            "mesh" : 0,
            "name" : "roof.001",
            "scale" : [
                0.23212800920009613,
                0.23212800920009613,
                0.23212800920009613
            ],
            "translation" : [
                0.14602039754390717,
                -0.16244007647037506,
                0.23262366652488708
            ]
        },
        {
            "mesh" : 1,
            "name" : "walls.001",
            "scale" : [
                0.23212800920009613,
                0.23212800920009613,
                0.23212800920009613
            ],
            "translation" : [
                0.14602039754390717,
                -0.16244007647037506,
                0.23262366652488708
            ]
        },
        {
            "mesh" : 2,
            "name" : "Plane.003",
            "rotation" : [
                -0.7071068286895752,
                0,
                0,
                0.7071068286895752
            ],
            "scale" : [
                0.19075536727905273,
                0.19075536727905273,
                0.19075536727905273
            ],
            "translation" : [
                0.08293548226356506,
                0.0328875333070755,
                -0.41733476519584656
            ]
        },
        {
            "mesh" : 3,
            "name" : "Plane.004",
            "rotation" : [
                -0.5,
                0.5,
                0.5,
                0.4999999701976776
            ],
            "scale" : [
                0.19075536727905273,
                0.19075536727905273,
                0.19075536727905273
            ],
            "translation" : [
                -0.03968201205134392,
                0.032887473702430725,
                0.2957085967063904
            ]
        },
        {
            "mesh" : 4,
            "name" : "Plane.005",
            "rotation" : [
                0.5,
                0.5,
                0.5,
                -0.5
            ],
            "scale" : [
                0.19075536727905273,
                0.19075536727905273,
                0.19075536727905273
            ],
            "translation" : [
                0.33172279596328735,
                0.03288746997714043,
                0.1695387363433838
            ]
        }
    ],
    "materials" : [
        {
            "doubleSided" : true,
            "name" : "roof_interface",
            "pbrMetallicRoughness" : {
                "baseColorFactor" : [
                    0.0021220825146883726,
                    1,
                    0,
                    1
                ]
            }
        },
        {
            "doubleSided" : true,
            "name" : "Wall_small_house",
            "pbrMetallicRoughness" : {
                "metallicFactor" : 0
            }
        },
        {
            "doubleSided" : true,
            "name" : "Windows.001",
            "pbrMetallicRoughness" : {
                "metallicFactor" : 0,
                "roughnessFactor" : 0.0833333358168602
            }
        }
    ],
    "meshes" : [
        {
            "name" : "Plane.027",
            "primitives" : [
                {
                    "attributes" : {
                        "POSITION" : 0,
                        "NORMAL" : 1,
                        "TEXCOORD_0" : 2
                    },
                    "indices" : 3,
                    "material" : 0
                }
            ]
        },
        {
            "name" : "Plane.028",
            "primitives" : [
                {
                    "attributes" : {
                        "POSITION" : 4,
                        "NORMAL" : 5,
                        "TEXCOORD_0" : 6
                    },
                    "indices" : 7,
                    "material" : 1
                }
            ]
        },
        {
            "name" : "Plane.029",
            "primitives" : [
                {
                    "attributes" : {
                        "POSITION" : 8,
                        "NORMAL" : 9,
                        "TEXCOORD_0" : 10
                    },
                    "indices" : 11,
                    "material" : 2
                }
            ]
        },
        {
            "name" : "Plane.030",
            "primitives" : [
                {
                    "attributes" : {
                        "POSITION" : 12,
                        "NORMAL" : 13,
                        "TEXCOORD_0" : 14
                    },
                    "indices" : 11,
                    "material" : 2
                }
            ]
        },
        {
            "name" : "Plane.031",
            "primitives" : [
                {
                    "attributes" : {
                        "POSITION" : 15,
                        "NORMAL" : 16,
                        "TEXCOORD_0" : 17
                    },
                    "indices" : 11,
                    "material" : 2
                }
            ]
        }
    ],
    "accessors" : [
        {
            "bufferView" : 0,
            "componentType" : 5126,
            "count" : 353,
            "max" : [
                1.125,
                3.00801944732666,
                1.125
            ],
            "min" : [
                -2.375,
                2.0365118980407715,
                -3.125
            ],
            "type" : "VEC3"
        },
        {
            "bufferView" : 1,
            "componentType" : 5126,
            "count" : 353,
            "type" : "VEC3"
        },
        {
            "bufferView" : 2,
            "componentType" : 5126,
            "count" : 353,
            "type" : "VEC2"
        },
        {
            "bufferView" : 3,
            "componentType" : 5123,
            "count" : 657,
            "type" : "SCALAR"
        },
        {
            "bufferView" : 4,
            "componentType" : 5126,
            "count" : 366,
            "max" : [
                1.0000100135803223,
                2.88301944732666,
                1.0000100135803223
            ],
            "min" : [
                -2.2500100135803223,
                0.69978928565979,
                -3.0000100135803223
            ],
            "type" : "VEC3"
        },
        {
            "bufferView" : 5,
            "componentType" : 5126,
            "count" : 366,
            "type" : "VEC3"
        },
        {
            "bufferView" : 6,
            "componentType" : 5126,
            "count" : 366,
            "type" : "VEC2"
        },
        {
            "bufferView" : 7,
            "componentType" : 5123,
            "count" : 588,
            "type" : "SCALAR"
        },
        {
            "bufferView" : 8,
            "componentType" : 5126,
            "count" : 4,
            "max" : [
                1,
                0,
                1
            ],
            "min" : [
                -0.034355103969573975,
                -6.339683267242435e-08,
                0.45035064220428467
            ],
            "type" : "VEC3"
        },
        {
            "bufferView" : 9,
            "componentType" : 5126,
            "count" : 4,
            "type" : "VEC3"
        },
        {
            "bufferView" : 10,
            "componentType" : 5126,
            "count" : 4,
            "type" : "VEC2"
        },
        {
            "bufferView" : 11,
            "componentType" : 5123,
            "count" : 6,
            "type" : "SCALAR"
        },
        {
            "bufferView" : 12,
            "componentType" : 5126,
            "count" : 4,
            "max" : [
                1,
                1.3297991152683153e-08,
                1
            ],
            "min" : [
                -0.3385776877403259,
                -4.809386666693172e-09,
                0.45035070180892944
            ],
            "type" : "VEC3"
        },
        {
            "bufferView" : 13,
            "componentType" : 5126,
            "count" : 4,
            "type" : "VEC3"
        },
        {
            "bufferView" : 14,
            "componentType" : 5126,
            "count" : 4,
            "type" : "VEC2"
        },
        {
            "bufferView" : 15,
            "componentType" : 5126,
            "count" : 4,
            "max" : [
                1,
                9.670173994891229e-09,
                1
            ],
            "min" : [
                -0.03435519337654114,
                -4.809386666693172e-09,
                0.45035070180892944
            ],
            "type" : "VEC3"
        },
        {
            "bufferView" : 16,
            "componentType" : 5126,
            "count" : 4,
            "type" : "VEC3"
        },
        {
            "bufferView" : 17,
            "componentType" : 5126,
            "count" : 4,
            "type" : "VEC2"
        }
    ],
    "bufferViews" : [
        {
            "buffer" : 0,
            "byteLength" : 4236,
            "byteOffset" : 0
        },
        {
            "buffer" : 0,
            "byteLength" : 4236,
            "byteOffset" : 4236
        },
        {
            "buffer" : 0,
            "byteLength" : 2824,
            "byteOffset" : 8472
        },
        {
            "buffer" : 0,
            "byteLength" : 1314,
            "byteOffset" : 11296
        },
        {
            "buffer" : 0,
            "byteLength" : 4392,
            "byteOffset" : 12612
        },
        {
            "buffer" : 0,
            "byteLength" : 4392,
            "byteOffset" : 17004
        },
        {
            "buffer" : 0,
            "byteLength" : 2928,
            "byteOffset" : 21396
        },
        {
            "buffer" : 0,
            "byteLength" : 1176,
            "byteOffset" : 24324
        },
        {
            "buffer" : 0,
            "byteLength" : 48,
            "byteOffset" : 25500
        },
        {
            "buffer" : 0,
            "byteLength" : 48,
            "byteOffset" : 25548
        },
        {
            "buffer" : 0,
            "byteLength" : 32,
            "byteOffset" : 25596
        },
        {
            "buffer" : 0,
            "byteLength" : 12,
            "byteOffset" : 25628
        },
        {
            "buffer" : 0,
            "byteLength" : 48,
            "byteOffset" : 25640
        },
        {
            "buffer" : 0,
            "byteLength" : 48,
            "byteOffset" : 25688
        },
        {
            "buffer" : 0,
            "byteLength" : 32,
            "byteOffset" : 25736
        },
        {
            "buffer" : 0,
            "byteLength" : 48,
            "byteOffset" : 25768
        },
        {
            "buffer" : 0,
            "byteLength" : 48,
            "byteOffset" : 25816
        },
        {
            "buffer" : 0,
            "byteLength" : 32,
            "byteOffset" : 25864
        }
    ],
    "buffers" : [
        {
            "byteLength" : 25896,
            "uri" : "data:application/octet-stream;base64,"
        }
    ]
}
